{
   "accessors" : [
      {
         "bufferView" : 0,
         "byteOffset" : 0,
         "componentType" : 5123,
         "count" : 38511,
         "max" : [ 8466 ],
         "min" : [ 0 ],
         "name" : "buffer-0-group-0-mesh-0-indices",
         "type" : "SCALAR"
      },
      {
         "bufferView" : 2,
         "byteOffset" : 0,
         "componentType" : 5126,
         "count" : 8467,
         "max" : [ 0.0680169016122818, 0.1596570014953613, 0.01808019913733006 ],
         "min" : [ -0.0680169016122818, 0, -0.01808019913733006 ],
         "name" : "buffer-0-group-0-mesh-0-position",
         "type" : "VEC3"
      },
      {
         "bufferView" : 2,
         "byteOffset" : 101604,
         "componentType" : 5126,
         "count" : 8467,
         "max" : [ 0.9999970197677612, 0.9999690055847168, 1 ],
         "min" : [ -0.9999970197677612, -0.9999920129776001, -1 ],
         "name" : "buffer-0-group-0-mesh-0-normal",
         "type" : "VEC3"
      },
      {
         "bufferView" : 0,
         "byteOffset" : 77022,
         "componentType" : 5123,
         "count" : 9768,
         "max" : [ 2379 ],
         "min" : [ 0 ],
         "name" : "buffer-0-group-1-mesh-0-indices",
         "type" : "SCALAR"
      },
      {
         "bufferView" : 2,
         "byteOffset" : 203208,
         "componentType" : 5126,
         "count" : 2380,
         "max" : [ 0.06434070318937302, 0.1632930040359497, 0.01292070001363754 ],
         "min" : [ -0.06343620270490646, 0, -0.01808019913733006 ],
         "name" : "buffer-0-group-1-mesh-0-position",
         "type" : "VEC3"
      },
      {
         "bufferView" : 2,
         "byteOffset" : 231768,
         "componentType" : 5126,
         "count" : 2380,
         "max" : [ 0.9999960064888, 0.9999989867210388, 1 ],
         "min" : [ -0.9999970197677612, -1, -1 ],
         "name" : "buffer-0-group-1-mesh-0-normal",
         "type" : "VEC3"
      },
      {
         "bufferView" : 0,
         "byteOffset" : 96558,
         "componentType" : 5123,
         "count" : 5811,
         "max" : [ 1437 ],
         "min" : [ 0 ],
         "name" : "buffer-0-group-2-mesh-0-indices",
         "type" : "SCALAR"
      },
      {
         "bufferView" : 2,
         "byteOffset" : 260328,
         "componentType" : 5126,
         "count" : 1438,
         "max" : [ 0.06434070318937302, 0.1481319963932037, 0.0130487997084856 ],
         "min" : [ -0.06343620270490646, 0, -0.01808019913733006 ],
         "name" : "buffer-0-group-2-mesh-0-position",
         "type" : "VEC3"
      },
      {
         "bufferView" : 2,
         "byteOffset" : 277584,
         "componentType" : 5126,
         "count" : 1438,
         "max" : [ 0.9996399879455566, 0.9997149705886841, 1 ],
         "min" : [ -0.9996370077133179, -0.9981970191001892, -0.7009119987487793 ],
         "name" : "buffer-0-group-2-mesh-0-normal",
         "type" : "VEC3"
      },
      {
         "bufferView" : 0,
         "byteOffset" : 108180,
         "componentType" : 5123,
         "count" : 969,
         "max" : [ 750 ],
         "min" : [ 0 ],
         "name" : "buffer-0-group-3-mesh-0-indices",
         "type" : "SCALAR"
      },
      {
         "bufferView" : 2,
         "byteOffset" : 294840,
         "componentType" : 5126,
         "count" : 751,
         "max" : [ 0.06248750165104866, 0.1596540063619614, 0 ],
         "min" : [ -0.06337620317935944, 0, -0.01808019913733006 ],
         "name" : "buffer-0-group-3-mesh-0-position",
         "type" : "VEC3"
      },
      {
         "bufferView" : 2,
         "byteOffset" : 303852,
         "componentType" : 5126,
         "count" : 751,
         "max" : [ 0.9678679704666138, 0.9884210228919983, 0.9996740221977234 ],
         "min" : [ -0.9924529790878296, -0.9884349703788757, 0 ],
         "name" : "buffer-0-group-3-mesh-0-normal",
         "type" : "VEC3"
      },
      {
         "bufferView" : 0,
         "byteOffset" : 110118,
         "componentType" : 5123,
         "count" : 285,
         "max" : [ 81 ],
         "min" : [ 0 ],
         "name" : "buffer-0-group-4-mesh-0-indices",
         "type" : "SCALAR"
      },
      {
         "bufferView" : 2,
         "byteOffset" : 312864,
         "componentType" : 5126,
         "count" : 82,
         "max" : [ 0.05627740174531937, 0.1831510066986084, 0 ],
         "min" : [ -0.05679180100560188, 0, -0.01808019913733006 ],
         "name" : "buffer-0-group-4-mesh-0-position",
         "type" : "VEC3"
      },
      {
         "bufferView" : 2,
         "byteOffset" : 313848,
         "componentType" : 5126,
         "count" : 82,
         "max" : [ 0, 0, 0 ],
         "min" : [ 0, 0, -1 ],
         "name" : "buffer-0-group-4-mesh-0-normal",
         "type" : "VEC3"
      },
      {
         "bufferView" : 0,
         "byteOffset" : 110688,
         "componentType" : 5123,
         "count" : 10401,
         "max" : [ 2462 ],
         "min" : [ 0 ],
         "name" : "buffer-0-group-5-mesh-0-indices",
         "type" : "SCALAR"
      },
      {
         "bufferView" : 2,
         "byteOffset" : 314832,
         "componentType" : 5126,
         "count" : 2463,
         "max" : [ 0.05728520080447197, 0.1831610053777695, 0.0001915330067276955 ],
         "min" : [ -0.05728520080447197, 0, -0.01808019913733006 ],
         "name" : "buffer-0-group-5-mesh-0-position",
         "type" : "VEC3"
      },
      {
         "bufferView" : 2,
         "byteOffset" : 344388,
         "componentType" : 5126,
         "count" : 2463,
         "max" : [ 0.9999939799308777, 0.9997829794883728, 1 ],
         "min" : [ -0.9848160147666931, -0.9999819993972778, -1 ],
         "name" : "buffer-0-group-5-mesh-0-normal",
         "type" : "VEC3"
      },
      {
         "bufferView" : 0,
         "byteOffset" : 131490,
         "componentType" : 5123,
         "count" : 4131,
         "max" : [ 1004 ],
         "min" : [ 0 ],
         "name" : "buffer-0-group-6-mesh-0-indices",
         "type" : "SCALAR"
      },
      {
         "bufferView" : 2,
         "byteOffset" : 373944,
         "componentType" : 5126,
         "count" : 1005,
         "max" : [ 0.0725783035159111, 0.1401289999485016, 0.01091820001602173 ],
         "min" : [ -0.0725783035159111, 0, -0.01808019913733006 ],
         "name" : "buffer-0-group-6-mesh-0-position",
         "type" : "VEC3"
      },
      {
         "bufferView" : 2,
         "byteOffset" : 386004,
         "componentType" : 5126,
         "count" : 1005,
         "max" : [ 0.9986900091171265, 0.9975919723510742, 0.9991649985313416 ],
         "min" : [ -0.996819019317627, -0.99344402551651, -1 ],
         "name" : "buffer-0-group-6-mesh-0-normal",
         "type" : "VEC3"
      }
   ],
   "asset" : {
      "generator" : "Obj2GltfConverter",
      "version" : "2.0"
   },
   "bufferViews" : [
      {
         "buffer" : 0,
         "byteLength" : 139752,
         "byteOffset" : 0,
         "byteStride" : 0,
         "name" : "buffer-0-bufferview-ushort",
         "target" : 34963
      },
      {
         "buffer" : 0,
         "byteLength" : 1,
         "byteOffset" : 0,
         "name" : "buffer-0-bufferview-vec2"
      },
      {
         "buffer" : 0,
         "byteLength" : 398064,
         "byteOffset" : 139752,
         "byteStride" : 12,
         "name" : "buffer-0-bufferview-vec3",
         "target" : 34962
      },
      {
         "buffer" : 0,
         "byteLength" : 1,
         "byteOffset" : 0,
         "name" : "buffer-0-bufferview-vec4"
      }
   ],
   "buffers" : [
      {
         "byteLength" : 537816,
         "name" : "buffer-0",
         "uri" : "Blue_Robots_Brother.bin"
      }
   ],
   "materials" : [
      {
         "alphaMode" : "OPAQUE",
         "doubleSided" : true,
         "name" : "Robot_0321_032Steel",
         "pbrMetallicRoughness" : {
            "baseColorFactor" : [ 0.331373, 0.333922, 0.384902, 1 ],
            "metallicFactor" : 0,
            "roughnessFactor" : 0.8707951946178574
         }
      },
      {
         "alphaMode" : "OPAQUE",
         "doubleSided" : true,
         "name" : "Robot_0323",
         "pbrMetallicRoughness" : {
            "baseColorFactor" : [ 0.309971, 0.241487, 0.0187559, 1 ],
            "metallicFactor" : 0,
            "roughnessFactor" : 0.8707951946178574
         }
      },
      {
         "alphaMode" : "OPAQUE",
         "doubleSided" : true,
         "name" : "Robot_0321_032Gray",
         "pbrMetallicRoughness" : {
            "baseColorFactor" : [ 0.173641, 0.198888, 0.202492, 1 ],
            "metallicFactor" : 0,
            "roughnessFactor" : 0.4511945315894735
         }
      },
      {
         "alphaMode" : "OPAQUE",
         "doubleSided" : true,
         "name" : "srf1",
         "pbrMetallicRoughness" : {
            "baseColorFactor" : [ 1, 1, 1, 1 ],
            "metallicFactor" : 0,
            "roughnessFactor" : 0.9878725645884591
         }
      },
      {
         "alphaMode" : "OPAQUE",
         "doubleSided" : true,
         "name" : "Robot_0323_032Black",
         "pbrMetallicRoughness" : {
            "baseColorFactor" : [ 0, 0, 0, 1 ],
            "metallicFactor" : 0,
            "roughnessFactor" : 0.4511945315894735
         }
      },
      {
         "alphaMode" : "OPAQUE",
         "doubleSided" : true,
         "name" : "Robot_0323_032Dark_032Orange",
         "pbrMetallicRoughness" : {
            "baseColorFactor" : [ 0.464537, 0.0377732, 0.0116319, 1 ],
            "metallicFactor" : 0,
            "roughnessFactor" : 0.4511945315894735
         }
      },
      {
         "alphaMode" : "OPAQUE",
         "doubleSided" : true,
         "name" : "Robot_0323_032Light_032Orange",
         "pbrMetallicRoughness" : {
            "baseColorFactor" : [ 0.866855, 0.214249, 0.0212198, 1 ],
            "metallicFactor" : 0,
            "roughnessFactor" : 0.4511945315894735
         }
      }
   ],
   "meshes" : [
      {
         "name" : "buffer-0-mesh-0",
         "primitives" : [
            {
               "attributes" : {
                  "NORMAL" : 2,
                  "POSITION" : 1
               },
               "indices" : 0,
               "material" : 0,
               "mode" : 4
            },
            {
               "attributes" : {
                  "NORMAL" : 5,
                  "POSITION" : 4
               },
               "indices" : 3,
               "material" : 1,
               "mode" : 4
            },
            {
               "attributes" : {
                  "NORMAL" : 8,
                  "POSITION" : 7
               },
               "indices" : 6,
               "material" : 2,
               "mode" : 4
            },
            {
               "attributes" : {
                  "NORMAL" : 11,
                  "POSITION" : 10
               },
               "indices" : 9,
               "material" : 3,
               "mode" : 4
            },
            {
               "attributes" : {
                  "NORMAL" : 14,
                  "POSITION" : 13
               },
               "indices" : 12,
               "material" : 4,
               "mode" : 4
            },
            {
               "attributes" : {
                  "NORMAL" : 17,
                  "POSITION" : 16
               },
               "indices" : 15,
               "material" : 5,
               "mode" : 4
            },
            {
               "attributes" : {
                  "NORMAL" : 20,
                  "POSITION" : 19
               },
               "indices" : 18,
               "material" : 6,
               "mode" : 4
            }
         ]
      }
   ],
   "nodes" : [
      {
         "mesh" : 0,
         "name" : "node-0"
      }
   ],
   "scenes" : [
      {
         "name" : "scene-0",
         "nodes" : [ 0 ]
      }
   ]
}
