{
	"accessors" :
	[
		{
			"bufferView" : 2,
			"byteOffset" : 0,
			"componentType" : 5126,
			"count" : 17287,
			"max" :
			[
				1,
				0.7372047901153564,
				0.8277258276939392,
				1
			],
			"min" :
			[
				0.006584956776350737,
				0.006584956776350737,
				0,
				1
			],
			"name" : "accessor_color_m0-PolyPaper22_-638494",
			"type" : "VEC4"
		},
		{
			"bufferView" : 2,
			"byteOffset" : 276592,
			"componentType" : 5126,
			"count" : 820,
			"max" :
			[
				1,
				1,
				1,
				1
			],
			"min" :
			[
				1,
				1,
				1,
				1
			],
			"name" : "accessor_color_m1-PolyGlass24_-638500",
			"type" : "VEC4"
		},
		{
			"bufferView" : 2,
			"byteOffset" : 750144,
			"componentType" : 5126,
			"count" : 12168,
			"max" :
			[
				1,
				0.7372047901153564,
				0.8277258276939392,
				1
			],
			"min" :
			[
				0,
				0.006584956776350737,
				0,
				1
			],
			"name" : "accessor_color_m10-PolyPaper13_-638554",
			"type" : "VEC4"
		},
		{
			"bufferView" : 2,
			"byteOffset" : 944832,
			"componentType" : 5126,
			"count" : 15852,
			"max" :
			[
				1,
				0.7372047901153564,
				0.8277258276939392,
				1
			],
			"min" :
			[
				0,
				0.1011451631784439,
				0,
				1
			],
			"name" : "accessor_color_m11-PolyPaper13_-638560",
			"type" : "VEC4"
		},
		{
			"bufferView" : 2,
			"byteOffset" : 1198464,
			"componentType" : 5126,
			"count" : 12574,
			"max" :
			[
				1,
				0.7372047901153564,
				0.8277258276939392,
				1
			],
			"min" :
			[
				0.006584956776350737,
				0.006584956776350737,
				0,
				1
			],
			"name" : "accessor_color_m12-PolyPaper13_-638566",
			"type" : "VEC4"
		},
		{
			"bufferView" : 2,
			"byteOffset" : 1399648,
			"componentType" : 5126,
			"count" : 13332,
			"max" :
			[
				1,
				0.5054324865341187,
				0.6387794613838196,
				1
			],
			"min" :
			[
				0.05637409910559654,
				0.1011451631784439,
				0,
				1
			],
			"name" : "accessor_color_m13-PolyPaper13_-638572",
			"type" : "VEC4"
		},
		{
			"bufferView" : 2,
			"byteOffset" : 1612960,
			"componentType" : 5126,
			"count" : 6282,
			"max" :
			[
				1,
				0.835527777671814,
				0.8277258276939392,
				1
			],
			"min" :
			[
				5.692175545846112e-05,
				0.006584956776350737,
				0,
				1
			],
			"name" : "accessor_color_m14-PolyPaper13_-638578",
			"type" : "VEC4"
		},
		{
			"bufferView" : 2,
			"byteOffset" : 1713472,
			"componentType" : 5126,
			"count" : 56,
			"max" :
			[
				1,
				1,
				1,
				1
			],
			"min" :
			[
				1,
				1,
				1,
				1
			],
			"name" : "accessor_color_m15-PolyGem25_-638584",
			"type" : "VEC4"
		},
		{
			"bufferView" : 2,
			"byteOffset" : 289712,
			"componentType" : 5126,
			"count" : 12723,
			"max" :
			[
				1,
				0.7372047901153564,
				0.8277258276939392,
				1
			],
			"min" :
			[
				0.006584956776350737,
				0.006584956776350737,
				0,
				1
			],
			"name" : "accessor_color_m2-PolyPaper17_-638506",
			"type" : "VEC4"
		},
		{
			"bufferView" : 2,
			"byteOffset" : 493280,
			"componentType" : 5126,
			"count" : 9372,
			"max" :
			[
				1,
				0.7372047901153564,
				0.8277258276939392,
				1
			],
			"min" :
			[
				0.05637409910559654,
				0.1011451631784439,
				0,
				1
			],
			"name" : "accessor_color_m3-PolyPaper13_-638512",
			"type" : "VEC4"
		},
		{
			"bufferView" : 2,
			"byteOffset" : 643232,
			"componentType" : 5126,
			"count" : 444,
			"max" :
			[
				1,
				0.3203815817832947,
				0,
				1
			],
			"min" :
			[
				1,
				0.3203815817832947,
				0,
				1
			],
			"name" : "accessor_color_m5-PolyPaper13_-638524",
			"type" : "VEC4"
		},
		{
			"bufferView" : 2,
			"byteOffset" : 650336,
			"componentType" : 5126,
			"count" : 1080,
			"max" :
			[
				0.9406006932258606,
				0.5054324865341187,
				0.6387794613838196,
				1
			],
			"min" :
			[
				0.05637409910559654,
				0.1011451631784439,
				0.1275297701358795,
				1
			],
			"name" : "accessor_color_m6-PolyPaper13_-638530",
			"type" : "VEC4"
		},
		{
			"bufferView" : 2,
			"byteOffset" : 667616,
			"componentType" : 5126,
			"count" : 168,
			"max" :
			[
				0.9406006932258606,
				0.5054324865341187,
				0.6387794613838196,
				1
			],
			"min" :
			[
				0.8751375675201416,
				0.1219857111573219,
				0.2932161688804626,
				1
			],
			"name" : "accessor_color_m7-PolyPaper13_-638536",
			"type" : "VEC4"
		},
		{
			"bufferView" : 2,
			"byteOffset" : 670304,
			"componentType" : 5126,
			"count" : 4990,
			"max" :
			[
				1,
				0.5054324865341187,
				0.6387794613838196,
				1
			],
			"min" :
			[
				0.9406006932258606,
				0.3203815817832947,
				0,
				1
			],
			"name" : "accessor_color_m9-PolyPaper17_-638548",
			"type" : "VEC4"
		},
		{
			"bufferView" : 0,
			"byteOffset" : 0,
			"componentType" : 5123,
			"count" : 25725,
			"max" :
			[
				17286
			],
			"min" :
			[
				0
			],
			"name" : "accessor_indices_0_m0-PolyPaper22_-638494",
			"type" : "SCALAR"
		},
		{
			"bufferView" : 0,
			"byteOffset" : 51450,
			"componentType" : 5123,
			"count" : 1224,
			"max" :
			[
				819
			],
			"min" :
			[
				0
			],
			"name" : "accessor_indices_0_m1-PolyGlass24_-638500",
			"type" : "SCALAR"
		},
		{
			"bufferView" : 0,
			"byteOffset" : 139932,
			"componentType" : 5123,
			"count" : 19272,
			"max" :
			[
				12167
			],
			"min" :
			[
				0
			],
			"name" : "accessor_indices_0_m10-PolyPaper13_-638554",
			"type" : "SCALAR"
		},
		{
			"bufferView" : 0,
			"byteOffset" : 178476,
			"componentType" : 5123,
			"count" : 24600,
			"max" :
			[
				15851
			],
			"min" :
			[
				0
			],
			"name" : "accessor_indices_0_m11-PolyPaper13_-638560",
			"type" : "SCALAR"
		},
		{
			"bufferView" : 0,
			"byteOffset" : 227676,
			"componentType" : 5123,
			"count" : 19110,
			"max" :
			[
				12573
			],
			"min" :
			[
				0
			],
			"name" : "accessor_indices_0_m12-PolyPaper13_-638566",
			"type" : "SCALAR"
		},
		{
			"bufferView" : 0,
			"byteOffset" : 265896,
			"componentType" : 5123,
			"count" : 20430,
			"max" :
			[
				13331
			],
			"min" :
			[
				0
			],
			"name" : "accessor_indices_0_m13-PolyPaper13_-638572",
			"type" : "SCALAR"
		},
		{
			"bufferView" : 0,
			"byteOffset" : 306756,
			"componentType" : 5123,
			"count" : 9246,
			"max" :
			[
				6281
			],
			"min" :
			[
				0
			],
			"name" : "accessor_indices_0_m14-PolyPaper13_-638578",
			"type" : "SCALAR"
		},
		{
			"bufferView" : 0,
			"byteOffset" : 325248,
			"componentType" : 5123,
			"count" : 72,
			"max" :
			[
				55
			],
			"min" :
			[
				0
			],
			"name" : "accessor_indices_0_m15-PolyGem25_-638584",
			"type" : "SCALAR"
		},
		{
			"bufferView" : 0,
			"byteOffset" : 53898,
			"componentType" : 5123,
			"count" : 19533,
			"max" :
			[
				12722
			],
			"min" :
			[
				0
			],
			"name" : "accessor_indices_0_m2-PolyPaper17_-638506",
			"type" : "SCALAR"
		},
		{
			"bufferView" : 0,
			"byteOffset" : 92964,
			"componentType" : 5123,
			"count" : 13104,
			"max" :
			[
				9371
			],
			"min" :
			[
				0
			],
			"name" : "accessor_indices_0_m3-PolyPaper13_-638512",
			"type" : "SCALAR"
		},
		{
			"bufferView" : 0,
			"byteOffset" : 119172,
			"componentType" : 5123,
			"count" : 708,
			"max" :
			[
				443
			],
			"min" :
			[
				0
			],
			"name" : "accessor_indices_0_m5-PolyPaper13_-638524",
			"type" : "SCALAR"
		},
		{
			"bufferView" : 0,
			"byteOffset" : 120588,
			"componentType" : 5123,
			"count" : 1560,
			"max" :
			[
				1079
			],
			"min" :
			[
				0
			],
			"name" : "accessor_indices_0_m6-PolyPaper13_-638530",
			"type" : "SCALAR"
		},
		{
			"bufferView" : 0,
			"byteOffset" : 123708,
			"componentType" : 5123,
			"count" : 276,
			"max" :
			[
				167
			],
			"min" :
			[
				0
			],
			"name" : "accessor_indices_0_m7-PolyPaper13_-638536",
			"type" : "SCALAR"
		},
		{
			"bufferView" : 0,
			"byteOffset" : 124260,
			"componentType" : 5123,
			"count" : 7836,
			"max" :
			[
				4989
			],
			"min" :
			[
				0
			],
			"name" : "accessor_indices_0_m9-PolyPaper17_-638548",
			"type" : "SCALAR"
		},
		{
			"bufferView" : 1,
			"byteOffset" : 207444,
			"componentType" : 5126,
			"count" : 17287,
			"max" :
			[
				0.9999734,
				0.999673,
				0.9999605
			],
			"min" :
			[
				-0.9999734,
				-0.999673,
				-0.99974
			],
			"name" : "accessor_normal_m0-PolyPaper22_-638494",
			"type" : "VEC3"
		},
		{
			"bufferView" : 1,
			"byteOffset" : 424728,
			"componentType" : 5126,
			"count" : 820,
			"max" :
			[
				0.9663972,
				0.9570322999999999,
				0.9991902
			],
			"min" :
			[
				-0.9663967,
				-0.9570319,
				-0.9991902
			],
			"name" : "accessor_normal_m1-PolyGlass24_-638500",
			"type" : "VEC3"
		},
		{
			"bufferView" : 1,
			"byteOffset" : 1271232,
			"componentType" : 5126,
			"count" : 12168,
			"max" :
			[
				0.9994716,
				0.9982258000000001,
				0.9997800999999999
			],
			"min" :
			[
				-0.9999138,
				-0.9982249,
				-0.9968053
			],
			"name" : "accessor_normal_m10-PolyPaper13_-638554",
			"type" : "VEC3"
		},
		{
			"bufferView" : 1,
			"byteOffset" : 1607472,
			"componentType" : 5126,
			"count" : 15852,
			"max" :
			[
				0.9993532000000001,
				0.9983947,
				0.9989228999999999
			],
			"min" :
			[
				-0.9998432,
				-0.9992326,
				-0.9989231
			],
			"name" : "accessor_normal_m11-PolyPaper13_-638560",
			"type" : "VEC3"
		},
		{
			"bufferView" : 1,
			"byteOffset" : 1948584,
			"componentType" : 5126,
			"count" : 12574,
			"max" :
			[
				0.9986798,
				0.998516,
				0.9999703
			],
			"min" :
			[
				-0.9986796999999999,
				-0.9981536,
				-0.9999703
			],
			"name" : "accessor_normal_m12-PolyPaper13_-638566",
			"type" : "VEC3"
		},
		{
			"bufferView" : 1,
			"byteOffset" : 2259456,
			"componentType" : 5126,
			"count" : 13332,
			"max" :
			[
				0.9995442,
				0.9992115,
				0.999124
			],
			"min" :
			[
				-0.9995442,
				-0.999436,
				-0.9993571999999999
			],
			"name" : "accessor_normal_m13-PolyPaper13_-638572",
			"type" : "VEC3"
		},
		{
			"bufferView" : 1,
			"byteOffset" : 2494824,
			"componentType" : 5126,
			"count" : 6282,
			"max" :
			[
				0.9990301,
				0.9994195,
				0.9961158
			],
			"min" :
			[
				-0.9994531,
				-0.9994195,
				-0.9988325
			],
			"name" : "accessor_normal_m14-PolyPaper13_-638578",
			"type" : "VEC3"
		},
		{
			"bufferView" : 1,
			"byteOffset" : 2570880,
			"componentType" : 5126,
			"count" : 56,
			"max" :
			[
				0.9879817,
				0.9247292,
				0.9308887
			],
			"min" :
			[
				-0.9879817,
				-0.9999836,
				-0.9460409
			],
			"name" : "accessor_normal_m15-PolyGem25_-638584",
			"type" : "VEC3"
		},
		{
			"bufferView" : 1,
			"byteOffset" : 587244,
			"componentType" : 5126,
			"count" : 12723,
			"max" :
			[
				0.9998886,
				0.9999199,
				0.9971373
			],
			"min" :
			[
				-0.9994513,
				-0.9993979,
				-0.9980227
			],
			"name" : "accessor_normal_m2-PolyPaper17_-638506",
			"type" : "VEC3"
		},
		{
			"bufferView" : 1,
			"byteOffset" : 852384,
			"componentType" : 5126,
			"count" : 9372,
			"max" :
			[
				0.9998655,
				0.9998985,
				0.9993555
			],
			"min" :
			[
				-0.9988645,
				-0.9998494,
				-0.9988522
			],
			"name" : "accessor_normal_m3-PolyPaper13_-638512",
			"type" : "VEC3"
		},
		{
			"bufferView" : 1,
			"byteOffset" : 970176,
			"componentType" : 5126,
			"count" : 444,
			"max" :
			[
				0.996092,
				0.9943003,
				0.9905286
			],
			"min" :
			[
				-0.9960921,
				-0.9942929,
				-0.9905285
			],
			"name" : "accessor_normal_m5-PolyPaper13_-638524",
			"type" : "VEC3"
		},
		{
			"bufferView" : 1,
			"byteOffset" : 988464,
			"componentType" : 5126,
			"count" : 1080,
			"max" :
			[
				0.9971837,
				0.9959015,
				0.9981022000000001
			],
			"min" :
			[
				-0.998362,
				-0.9959013,
				-0.9981022000000001
			],
			"name" : "accessor_normal_m6-PolyPaper13_-638530",
			"type" : "VEC3"
		},
		{
			"bufferView" : 1,
			"byteOffset" : 1003440,
			"componentType" : 5126,
			"count" : 168,
			"max" :
			[
				0.9950413,
				0.9982231,
				0.9968051999999999
			],
			"min" :
			[
				-0.9950414,
				-0.9982232,
				-0.9968051999999999
			],
			"name" : "accessor_normal_m7-PolyPaper13_-638536",
			"type" : "VEC3"
		},
		{
			"bufferView" : 1,
			"byteOffset" : 1065336,
			"componentType" : 5126,
			"count" : 4990,
			"max" :
			[
				0.9976634,
				0.9947302,
				0.9907659
			],
			"min" :
			[
				-0.9976633,
				-0.9947243,
				-0.9910755
			],
			"name" : "accessor_normal_m9-PolyPaper17_-638548",
			"type" : "VEC3"
		},
		{
			"bufferView" : 1,
			"byteOffset" : 0,
			"componentType" : 5126,
			"count" : 17287,
			"max" :
			[
				2.530559,
				2.588962,
				2.635064
			],
			"min" :
			[
				-0.6779537,
				-3.553176,
				-0.7333082
			],
			"name" : "accessor_position_m0-PolyPaper22_-638494",
			"type" : "VEC3"
		},
		{
			"bufferView" : 1,
			"byteOffset" : 414888,
			"componentType" : 5126,
			"count" : 820,
			"max" :
			[
				0.785835,
				2.153085,
				0.8130857
			],
			"min" :
			[
				0.4045819,
				1.730534,
				0.5687791
			],
			"name" : "accessor_position_m1-PolyGlass24_-638500",
			"type" : "VEC3"
		},
		{
			"bufferView" : 1,
			"byteOffset" : 1125216,
			"componentType" : 5126,
			"count" : 12168,
			"max" :
			[
				1.344799,
				1.158089,
				2.482926
			],
			"min" :
			[
				-0.7765308,
				-3.473276,
				-0.3856813
			],
			"name" : "accessor_position_m10-PolyPaper13_-638554",
			"type" : "VEC3"
		},
		{
			"bufferView" : 1,
			"byteOffset" : 1417248,
			"componentType" : 5126,
			"count" : 15852,
			"max" :
			[
				1.923711,
				2.058582,
				0.9941776
			],
			"min" :
			[
				-0.2556418,
				-3.355298,
				-0.6511099
			],
			"name" : "accessor_position_m11-PolyPaper13_-638560",
			"type" : "VEC3"
		},
		{
			"bufferView" : 1,
			"byteOffset" : 1797696,
			"componentType" : 5126,
			"count" : 12574,
			"max" :
			[
				2.456105,
				1.97404,
				0.9263949
			],
			"min" :
			[
				-0.6371188,
				-2.366019,
				-0.8118278
			],
			"name" : "accessor_position_m12-PolyPaper13_-638566",
			"type" : "VEC3"
		},
		{
			"bufferView" : 1,
			"byteOffset" : 2099472,
			"componentType" : 5126,
			"count" : 13332,
			"max" :
			[
				3.047342,
				2.570068,
				2.444834
			],
			"min" :
			[
				-0.2818103,
				-0.5646675,
				-0.7830286
			],
			"name" : "accessor_position_m13-PolyPaper13_-638572",
			"type" : "VEC3"
		},
		{
			"bufferView" : 1,
			"byteOffset" : 2419440,
			"componentType" : 5126,
			"count" : 6282,
			"max" :
			[
				1.887999,
				2.786913,
				0.731299
			],
			"min" :
			[
				-0.4158206,
				0.01668005,
				-0.6172085
			],
			"name" : "accessor_position_m14-PolyPaper13_-638578",
			"type" : "VEC3"
		},
		{
			"bufferView" : 1,
			"byteOffset" : 2570208,
			"componentType" : 5126,
			"count" : 56,
			"max" :
			[
				0.6884269,
				1.972695,
				0.5831107
			],
			"min" :
			[
				0.5729272,
				1.888131,
				0.471349
			],
			"name" : "accessor_position_m15-PolyGem25_-638584",
			"type" : "VEC3"
		},
		{
			"bufferView" : 1,
			"byteOffset" : 434568,
			"componentType" : 5126,
			"count" : 12723,
			"max" :
			[
				3.653286,
				2.197201,
				2.315052
			],
			"min" :
			[
				-0.5998346,
				-3.553176,
				-0.8088903
			],
			"name" : "accessor_position_m2-PolyPaper17_-638506",
			"type" : "VEC3"
		},
		{
			"bufferView" : 1,
			"byteOffset" : 739920,
			"componentType" : 5126,
			"count" : 9372,
			"max" :
			[
				2.485255,
				1.357769,
				2.145672
			],
			"min" :
			[
				-0.7885721,
				-2.997538,
				-0.7886221
			],
			"name" : "accessor_position_m3-PolyPaper13_-638512",
			"type" : "VEC3"
		},
		{
			"bufferView" : 1,
			"byteOffset" : 964848,
			"componentType" : 5126,
			"count" : 444,
			"max" :
			[
				1.219738,
				-2.761742,
				0.4136518
			],
			"min" :
			[
				1.048924,
				-3.314032,
				0.2786649
			],
			"name" : "accessor_position_m5-PolyPaper13_-638524",
			"type" : "VEC3"
		},
		{
			"bufferView" : 1,
			"byteOffset" : 975504,
			"componentType" : 5126,
			"count" : 1080,
			"max" :
			[
				1.136237,
				1.921455,
				1.128814
			],
			"min" :
			[
				-0.9861325,
				-3.142573,
				-0.4524021
			],
			"name" : "accessor_position_m6-PolyPaper13_-638530",
			"type" : "VEC3"
		},
		{
			"bufferView" : 1,
			"byteOffset" : 1001424,
			"componentType" : 5126,
			"count" : 168,
			"max" :
			[
				0.2439643,
				-1.50492,
				0.7924309
			],
			"min" :
			[
				-0.1030571,
				-2.303361,
				0.4301788
			],
			"name" : "accessor_position_m7-PolyPaper13_-638536",
			"type" : "VEC3"
		},
		{
			"bufferView" : 1,
			"byteOffset" : 1005456,
			"componentType" : 5126,
			"count" : 4990,
			"max" :
			[
				1.34725,
				-2.718599,
				1.100677
			],
			"min" :
			[
				-0.1230332,
				-3.488769,
				0.1786858
			],
			"name" : "accessor_position_m9-PolyPaper17_-638548",
			"type" : "VEC3"
		}
	],
	"asset" :
	{
		"copyright" : "Unknown",
		"generator" : "glTF 1-to-2 Upgrader for Google Blocks",
		"version" : "2.0"
	},
	"bufferViews" :
	[
		{
			"buffer" : 0,
			"byteLength" : 325392,
			"byteOffset" : 0,
			"name" : "ushortBufferView",
			"target" : 34963
		},
		{
			"buffer" : 0,
			"byteLength" : 2571552,
			"byteOffset" : 325392,
			"byteStride" : 12,
			"name" : "vec3BufferView",
			"target" : 34962
		},
		{
			"buffer" : 0,
			"byteLength" : 1714368,
			"byteOffset" : 2896944,
			"byteStride" : 16,
			"name" : "vec4BufferView",
			"target" : 34962
		}
	],
	"buffers" :
	[
		{
			"byteLength" : 4611312,
			"name" : "pinkotron",
			"uri" : "pinkotron.bin"
		}
	],
	"materials" :
	[
		{
			"alphaMode" : "OPAQUE",
			"doubleSided" : false,
			"name" : "BlocksPaper",
			"pbrMetallicRoughness" :
			{
				"baseColorFactor" :
				[
					1,
					1,
					1,
					1
				],
				"metallicFactor" : 0,
				"roughnessFactor" : 0.6
			}
		},
		{
			"alphaMode" : "BLEND",
			"doubleSided" : false,
			"name" : "BlocksGlass",
			"pbrMetallicRoughness" :
			{
				"baseColorFactor" :
				[
					0.2,
					0.2,
					1,
					0.3
				],
				"metallicFactor" : 1,
				"roughnessFactor" : 0.4
			}
		},
		{
			"alphaMode" : "OPAQUE",
			"doubleSided" : true,
			"name" : "BlocksGem",
			"pbrMetallicRoughness" :
			{
				"baseColorFactor" :
				[
					1,
					0.4,
					1,
					1
				],
				"metallicFactor" : 0,
				"roughnessFactor" : 0.1
			}
		}
	],
	"meshes" :
	[
		{
			"name" : "mesh_m0-PolyPaper22_-638494",
			"primitives" :
			[
				{
					"attributes" :
					{
						"COLOR_0" : 0,
						"NORMAL" : 28,
						"POSITION" : 42
					},
					"indices" : 14,
					"material" : 0,
					"mode" : 4
				}
			]
		},
		{
			"name" : "mesh_m1-PolyGlass24_-638500",
			"primitives" :
			[
				{
					"attributes" :
					{
						"COLOR_0" : 1,
						"NORMAL" : 29,
						"POSITION" : 43
					},
					"indices" : 15,
					"material" : 1,
					"mode" : 4
				}
			]
		},
		{
			"name" : "mesh_m10-PolyPaper13_-638554",
			"primitives" :
			[
				{
					"attributes" :
					{
						"COLOR_0" : 2,
						"NORMAL" : 30,
						"POSITION" : 44
					},
					"indices" : 16,
					"material" : 0,
					"mode" : 4
				}
			]
		},
		{
			"name" : "mesh_m11-PolyPaper13_-638560",
			"primitives" :
			[
				{
					"attributes" :
					{
						"COLOR_0" : 3,
						"NORMAL" : 31,
						"POSITION" : 45
					},
					"indices" : 17,
					"material" : 0,
					"mode" : 4
				}
			]
		},
		{
			"name" : "mesh_m12-PolyPaper13_-638566",
			"primitives" :
			[
				{
					"attributes" :
					{
						"COLOR_0" : 4,
						"NORMAL" : 32,
						"POSITION" : 46
					},
					"indices" : 18,
					"material" : 0,
					"mode" : 4
				}
			]
		},
		{
			"name" : "mesh_m13-PolyPaper13_-638572",
			"primitives" :
			[
				{
					"attributes" :
					{
						"COLOR_0" : 5,
						"NORMAL" : 33,
						"POSITION" : 47
					},
					"indices" : 19,
					"material" : 0,
					"mode" : 4
				}
			]
		},
		{
			"name" : "mesh_m14-PolyPaper13_-638578",
			"primitives" :
			[
				{
					"attributes" :
					{
						"COLOR_0" : 6,
						"NORMAL" : 34,
						"POSITION" : 48
					},
					"indices" : 20,
					"material" : 0,
					"mode" : 4
				}
			]
		},
		{
			"name" : "mesh_m15-PolyGem25_-638584",
			"primitives" :
			[
				{
					"attributes" :
					{
						"COLOR_0" : 7,
						"NORMAL" : 35,
						"POSITION" : 49
					},
					"indices" : 21,
					"material" : 2,
					"mode" : 4
				}
			]
		},
		{
			"name" : "mesh_m2-PolyPaper17_-638506",
			"primitives" :
			[
				{
					"attributes" :
					{
						"COLOR_0" : 8,
						"NORMAL" : 36,
						"POSITION" : 50
					},
					"indices" : 22,
					"material" : 0,
					"mode" : 4
				}
			]
		},
		{
			"name" : "mesh_m3-PolyPaper13_-638512",
			"primitives" :
			[
				{
					"attributes" :
					{
						"COLOR_0" : 9,
						"NORMAL" : 37,
						"POSITION" : 51
					},
					"indices" : 23,
					"material" : 0,
					"mode" : 4
				}
			]
		},
		{
			"name" : "mesh_m5-PolyPaper13_-638524",
			"primitives" :
			[
				{
					"attributes" :
					{
						"COLOR_0" : 10,
						"NORMAL" : 38,
						"POSITION" : 52
					},
					"indices" : 24,
					"material" : 0,
					"mode" : 4
				}
			]
		},
		{
			"name" : "mesh_m6-PolyPaper13_-638530",
			"primitives" :
			[
				{
					"attributes" :
					{
						"COLOR_0" : 11,
						"NORMAL" : 39,
						"POSITION" : 53
					},
					"indices" : 25,
					"material" : 0,
					"mode" : 4
				}
			]
		},
		{
			"name" : "mesh_m7-PolyPaper13_-638536",
			"primitives" :
			[
				{
					"attributes" :
					{
						"COLOR_0" : 12,
						"NORMAL" : 40,
						"POSITION" : 54
					},
					"indices" : 26,
					"material" : 0,
					"mode" : 4
				}
			]
		},
		{
			"name" : "mesh_m9-PolyPaper17_-638548",
			"primitives" :
			[
				{
					"attributes" :
					{
						"COLOR_0" : 13,
						"NORMAL" : 41,
						"POSITION" : 55
					},
					"indices" : 27,
					"material" : 0,
					"mode" : 4
				}
			]
		}
	],
	"nodes" :
	[
		{
			"matrix" :
			[
				1,
				0,
				0,
				0,
				0,
				1,
				0,
				0,
				0,
				0,
				1,
				0,
				0,
				0,
				0,
				1
			],
			"mesh" : 0,
			"name" : "node_MeshObject-1242439680-PolyPaper22"
		},
		{
			"matrix" :
			[
				1,
				0,
				0,
				0,
				0,
				1,
				0,
				0,
				0,
				0,
				1,
				0,
				0,
				0,
				0,
				1
			],
			"mesh" : 6,
			"name" : "node_MeshObject-1251187712-PolyPaper13"
		},
		{
			"matrix" :
			[
				1,
				0,
				0,
				0,
				0,
				1,
				0,
				0,
				0,
				0,
				1,
				0,
				0,
				0,
				0,
				1
			],
			"mesh" : 12,
			"name" : "node_MeshObject-1532853248-PolyPaper13"
		},
		{
			"matrix" :
			[
				1,
				0,
				0,
				0,
				0,
				1,
				0,
				0,
				0,
				0,
				1,
				0,
				0,
				0,
				0,
				1
			],
			"mesh" : 5,
			"name" : "node_MeshObject-1823266816-PolyPaper13"
		},
		{
			"matrix" :
			[
				1,
				0,
				0,
				0,
				0,
				1,
				0,
				0,
				0,
				0,
				1,
				0,
				0,
				0,
				0,
				1
			],
			"mesh" : 11,
			"name" : "node_MeshObject-2104932352-PolyPaper13"
		},
		{
			"matrix" :
			[
				1,
				0,
				0,
				0,
				0,
				1,
				0,
				0,
				0,
				0,
				1,
				0,
				0,
				0,
				0,
				1
			],
			"mesh" : 1,
			"name" : "node_MeshObject-670360576-PolyGlass24"
		},
		{
			"matrix" :
			[
				1,
				0,
				0,
				0,
				0,
				1,
				0,
				0,
				0,
				0,
				1,
				0,
				0,
				0,
				0,
				1
			],
			"mesh" : 8,
			"name" : "node_MeshObject-98281472-PolyPaper17"
		},
		{
			"matrix" :
			[
				1,
				0,
				0,
				0,
				0,
				1,
				0,
				0,
				0,
				0,
				1,
				0,
				0,
				0,
				0,
				1
			],
			"mesh" : 3,
			"name" : "node_MeshObject1327542272-PolyPaper13"
		},
		{
			"matrix" :
			[
				1,
				0,
				0,
				0,
				0,
				1,
				0,
				0,
				0,
				0,
				1,
				0,
				0,
				0,
				0,
				1
			],
			"mesh" : 10,
			"name" : "node_MeshObject1617955840-PolyPaper13"
		},
		{
			"matrix" :
			[
				1,
				0,
				0,
				0,
				0,
				1,
				0,
				0,
				0,
				0,
				1,
				0,
				0,
				0,
				0,
				1
			],
			"mesh" : 13,
			"name" : "node_MeshObject183384064-PolyPaper17"
		},
		{
			"matrix" :
			[
				1,
				0,
				0,
				0,
				0,
				1,
				0,
				0,
				0,
				0,
				1,
				0,
				0,
				0,
				0,
				1
			],
			"mesh" : 4,
			"name" : "node_MeshObject1899621376-PolyPaper13"
		},
		{
			"matrix" :
			[
				1,
				0,
				0,
				0,
				0,
				1,
				0,
				0,
				0,
				0,
				1,
				0,
				0,
				0,
				0,
				1
			],
			"mesh" : 9,
			"name" : "node_MeshObject473797632-PolyPaper13"
		},
		{
			"matrix" :
			[
				1,
				0,
				0,
				0,
				0,
				1,
				0,
				0,
				0,
				0,
				1,
				0,
				0,
				0,
				0,
				1
			],
			"mesh" : 7,
			"name" : "node_MeshObject569245696-PolyGem25"
		},
		{
			"matrix" :
			[
				1,
				0,
				0,
				0,
				0,
				1,
				0,
				0,
				0,
				0,
				1,
				0,
				0,
				0,
				0,
				1
			],
			"mesh" : 2,
			"name" : "node_MeshObject755463168-PolyPaper13"
		}
	],
	"scene" : 0,
	"scenes" :
	[
		{
			"extras" : {},
			"name" : "defaultScene",
			"nodes" :
			[
				0,
				5,
				6,
				11,
				8,
				4,
				2,
				9,
				13,
				7,
				10,
				3,
				1,
				12
			]
		}
	]
}
