{
   "accessors" : [
      {
         "bufferView" : 0,
         "byteOffset" : 0,
         "componentType" : 5123,
         "count" : 14061,
         "max" : [ 3147 ],
         "min" : [ 0 ],
         "name" : "buffer-0-group-0-mesh-0-indices",
         "type" : "SCALAR"
      },
      {
         "bufferView" : 2,
         "byteOffset" : 0,
         "componentType" : 5126,
         "count" : 3148,
         "max" : [ 5.727439880371094, 6.815559864044189, 0 ],
         "min" : [ -5.6940598487854, -0.6943719983100891, -1.809990048408508 ],
         "name" : "buffer-0-group-0-mesh-0-position",
         "type" : "VEC3"
      },
      {
         "bufferView" : 2,
         "byteOffset" : 37776,
         "componentType" : 5126,
         "count" : 3148,
         "max" : [ 0.9999970197677612, 1, 1 ],
         "min" : [ -0.9996690154075623, -1, -1 ],
         "name" : "buffer-0-group-0-mesh-0-normal",
         "type" : "VEC3"
      },
      {
         "bufferView" : 0,
         "byteOffset" : 28122,
         "componentType" : 5123,
         "count" : 185961,
         "max" : [ 40523 ],
         "min" : [ 0 ],
         "name" : "buffer-0-group-1-mesh-0-indices",
         "type" : "SCALAR"
      },
      {
         "bufferView" : 2,
         "byteOffset" : 75552,
         "componentType" : 5126,
         "count" : 40524,
         "max" : [ 6.429920196533203, 3.801719903945923, 1.610939979553223 ],
         "min" : [ -6.393610000610352, -6.286890029907227, -1.809980034828186 ],
         "name" : "buffer-0-group-1-mesh-0-position",
         "type" : "VEC3"
      },
      {
         "bufferView" : 2,
         "byteOffset" : 561840,
         "componentType" : 5126,
         "count" : 40524,
         "max" : [ 0.9999859929084778, 1, 1 ],
         "min" : [ -0.9999979734420776, -1, -1 ],
         "name" : "buffer-0-group-1-mesh-0-normal",
         "type" : "VEC3"
      },
      {
         "bufferView" : 0,
         "byteOffset" : 400044,
         "componentType" : 5123,
         "count" : 2337,
         "max" : [ 581 ],
         "min" : [ 0 ],
         "name" : "buffer-0-group-2-mesh-0-indices",
         "type" : "SCALAR"
      },
      {
         "bufferView" : 2,
         "byteOffset" : 1048128,
         "componentType" : 5126,
         "count" : 582,
         "max" : [ 3.470930099487305, 0.9519339799880981, 1.051830053329468 ],
         "min" : [ -3.43474006652832, -4.978929996490479, -1.12116003036499 ],
         "name" : "buffer-0-group-2-mesh-0-position",
         "type" : "VEC3"
      },
      {
         "bufferView" : 2,
         "byteOffset" : 1055112,
         "componentType" : 5126,
         "count" : 582,
         "max" : [ 0.7051870226860046, 0.8502240180969238, 1 ],
         "min" : [ -0.7051889896392822, -0.05686549842357635, 0 ],
         "name" : "buffer-0-group-2-mesh-0-normal",
         "type" : "VEC3"
      },
      {
         "bufferView" : 0,
         "byteOffset" : 404718,
         "componentType" : 5123,
         "count" : 64161,
         "max" : [ 15492 ],
         "min" : [ 0 ],
         "name" : "buffer-0-group-3-mesh-0-indices",
         "type" : "SCALAR"
      },
      {
         "bufferView" : 2,
         "byteOffset" : 1062096,
         "componentType" : 5126,
         "count" : 15493,
         "max" : [ 6.34207010269165, 4.688139915466309, 1.305089950561523 ],
         "min" : [ -6.308700084686279, -6.99478006362915, -1.809990048408508 ],
         "name" : "buffer-0-group-3-mesh-0-position",
         "type" : "VEC3"
      },
      {
         "bufferView" : 2,
         "byteOffset" : 1248012,
         "componentType" : 5126,
         "count" : 15493,
         "max" : [ 1, 1, 1 ],
         "min" : [ -1, -1, -1 ],
         "name" : "buffer-0-group-3-mesh-0-normal",
         "type" : "VEC3"
      }
   ],
   "asset" : {
      "generator" : "Obj2GltfConverter",
      "version" : "2.0"
   },
   "bufferViews" : [
      {
         "buffer" : 0,
         "byteLength" : 533040,
         "byteOffset" : 0,
         "byteStride" : 0,
         "name" : "buffer-0-bufferview-ushort",
         "target" : 34963
      },
      {
         "buffer" : 0,
         "byteLength" : 1,
         "byteOffset" : 0,
         "name" : "buffer-0-bufferview-vec2"
      },
      {
         "buffer" : 0,
         "byteLength" : 1433928,
         "byteOffset" : 533040,
         "byteStride" : 12,
         "name" : "buffer-0-bufferview-vec3",
         "target" : 34962
      },
      {
         "buffer" : 0,
         "byteLength" : 1,
         "byteOffset" : 0,
         "name" : "buffer-0-bufferview-vec4"
      }
   ],
   "buffers" : [
      {
         "byteLength" : 1966968,
         "name" : "buffer-0",
         "uri" : "RedRobot.bin"
      }
   ],
   "materials" : [
      {
         "alphaMode" : "OPAQUE",
         "doubleSided" : true,
         "name" : "Robot_0321_032Gray",
         "pbrMetallicRoughness" : {
            "baseColorFactor" : [ 0, 0, 0, 1 ],
            "metallicFactor" : 0,
            "roughnessFactor" : -0.2039232253403336
         }
      },
      {
         "alphaMode" : "OPAQUE",
         "doubleSided" : true,
         "name" : "Robot_0321_032Steel",
         "pbrMetallicRoughness" : {
            "baseColorFactor" : [ 0.331373, 0.333922, 0.384902, 1 ],
            "metallicFactor" : 0,
            "roughnessFactor" : 0.8707951946178574
         }
      },
      {
         "alphaMode" : "OPAQUE",
         "doubleSided" : true,
         "name" : "Robot_0321_032Black",
         "pbrMetallicRoughness" : {
            "baseColorFactor" : [ 0, 0, 0, 1 ],
            "metallicFactor" : 0,
            "roughnessFactor" : -0.2039232253403336
         }
      },
      {
         "alphaMode" : "OPAQUE",
         "doubleSided" : true,
         "name" : "Robot_0321",
         "pbrMetallicRoughness" : {
            "baseColorFactor" : [ 0.8, 0, 0, 1 ],
            "metallicFactor" : 0,
            "roughnessFactor" : 0.8707951946178574
         }
      }
   ],
   "meshes" : [
      {
         "name" : "buffer-0-mesh-0",
         "primitives" : [
            {
               "attributes" : {
                  "NORMAL" : 2,
                  "POSITION" : 1
               },
               "indices" : 0,
               "material" : 0,
               "mode" : 4
            },
            {
               "attributes" : {
                  "NORMAL" : 5,
                  "POSITION" : 4
               },
               "indices" : 3,
               "material" : 1,
               "mode" : 4
            },
            {
               "attributes" : {
                  "NORMAL" : 8,
                  "POSITION" : 7
               },
               "indices" : 6,
               "material" : 2,
               "mode" : 4
            },
            {
               "attributes" : {
                  "NORMAL" : 11,
                  "POSITION" : 10
               },
               "indices" : 9,
               "material" : 3,
               "mode" : 4
            }
         ]
      }
   ],
   "nodes" : [
      {
         "mesh" : 0,
         "name" : "node-0"
      }
   ],
   "scenes" : [
      {
         "name" : "scene-0",
         "nodes" : [ 0 ]
      }
   ]
}
