{
	"accessors" :
	[
		{
			"bufferView" : 2,
			"byteOffset" : 0,
			"componentType" : 5126,
			"count" : 7450,
			"max" :
			[
				1,
				1,
				1,
				1
			],
			"min" :
			[
				5.692175545846112e-05,
				0.006584956776350737,
				0,
				1
			],
			"name" : "accessor_color_m0-PolyPaper13_-2081036",
			"type" : "VEC4"
		},
		{
			"bufferView" : 2,
			"byteOffset" : 119200,
			"componentType" : 5126,
			"count" : 9712,
			"max" :
			[
				1,
				1,
				1,
				1
			],
			"min" :
			[
				0.006584956776350737,
				0.006584956776350737,
				0,
				1
			],
			"name" : "accessor_color_m1-PolyPaper16_-2079376",
			"type" : "VEC4"
		},
		{
			"bufferView" : 2,
			"byteOffset" : 274592,
			"componentType" : 5126,
			"count" : 1282,
			"max" :
			[
				0.6800203323364258,
				0.6800203323364258,
				0.6800203323364258,
				0.2509804
			],
			"min" :
			[
				0.6800203323364258,
				0.6800203323364258,
				0.6800203323364258,
				0.2509804
			],
			"name" : "accessor_color_m2-PolyGlass24_-2078922",
			"type" : "VEC4"
		},
		{
			"bufferView" : 0,
			"byteOffset" : 0,
			"componentType" : 5123,
			"count" : 10818,
			"max" :
			[
				7449
			],
			"min" :
			[
				0
			],
			"name" : "accessor_indices_0_m0-PolyPaper13_-2081036",
			"type" : "SCALAR"
		},
		{
			"bufferView" : 0,
			"byteOffset" : 21636,
			"componentType" : 5123,
			"count" : 14028,
			"max" :
			[
				9711
			],
			"min" :
			[
				0
			],
			"name" : "accessor_indices_0_m1-PolyPaper16_-2079376",
			"type" : "SCALAR"
		},
		{
			"bufferView" : 0,
			"byteOffset" : 49692,
			"componentType" : 5123,
			"count" : 1788,
			"max" :
			[
				1281
			],
			"min" :
			[
				0
			],
			"name" : "accessor_indices_0_m2-PolyGlass24_-2078922",
			"type" : "SCALAR"
		},
		{
			"bufferView" : 1,
			"byteOffset" : 89400,
			"componentType" : 5126,
			"count" : 7450,
			"max" :
			[
				0.9995299,
				0.9999033000000001,
				0.999359
			],
			"min" :
			[
				-0.9995299,
				-0.9999033000000001,
				-0.9993826
			],
			"name" : "accessor_normal_m0-PolyPaper13_-2081036",
			"type" : "VEC3"
		},
		{
			"bufferView" : 1,
			"byteOffset" : 295344,
			"componentType" : 5126,
			"count" : 9712,
			"max" :
			[
				0.9992374000000001,
				0.9999986,
				0.9996902
			],
			"min" :
			[
				-0.9992374000000001,
				-0.9999794,
				-0.9990487
			],
			"name" : "accessor_normal_m1-PolyPaper16_-2079376",
			"type" : "VEC3"
		},
		{
			"bufferView" : 1,
			"byteOffset" : 427272,
			"componentType" : 5126,
			"count" : 1282,
			"max" :
			[
				0.9873452,
				0.9994121,
				0.992359
			],
			"min" :
			[
				-0.9873453,
				-0.9981748,
				-0.9923591
			],
			"name" : "accessor_normal_m2-PolyGlass24_-2078922",
			"type" : "VEC3"
		},
		{
			"bufferView" : 1,
			"byteOffset" : 0,
			"componentType" : 5126,
			"count" : 7450,
			"max" :
			[
				0.7734247,
				2.107769,
				0.3905941
			],
			"min" :
			[
				-0.4757433,
				0.7380638,
				-0.8561001
			],
			"name" : "accessor_position_m0-PolyPaper13_-2081036",
			"type" : "VEC3"
		},
		{
			"bufferView" : 1,
			"byteOffset" : 178800,
			"componentType" : 5126,
			"count" : 9712,
			"max" :
			[
				0.569619,
				1.966088,
				0.1988634
			],
			"min" :
			[
				-0.2920442,
				0.9233528,
				-0.6512275
			],
			"name" : "accessor_position_m1-PolyPaper16_-2079376",
			"type" : "VEC3"
		},
		{
			"bufferView" : 1,
			"byteOffset" : 411888,
			"componentType" : 5126,
			"count" : 1282,
			"max" :
			[
				-0.1068454,
				1.636497,
				-0.3584688
			],
			"min" :
			[
				-0.3875441,
				1.414644,
				-0.6368780000000001
			],
			"name" : "accessor_position_m2-PolyGlass24_-2078922",
			"type" : "VEC3"
		}
	],
	"asset" :
	{
		"copyright" : "Unknown",
		"generator" : "glTF 1-to-2 Upgrader for Google Blocks",
		"version" : "2.0"
	},
	"bufferViews" :
	[
		{
			"buffer" : 0,
			"byteLength" : 53268,
			"byteOffset" : 0,
			"name" : "ushortBufferView",
			"target" : 34963
		},
		{
			"buffer" : 0,
			"byteLength" : 442656,
			"byteOffset" : 53268,
			"byteStride" : 12,
			"name" : "vec3BufferView",
			"target" : 34962
		},
		{
			"buffer" : 0,
			"byteLength" : 295104,
			"byteOffset" : 495924,
			"byteStride" : 16,
			"name" : "vec4BufferView",
			"target" : 34962
		}
	],
	"buffers" :
	[
		{
			"byteLength" : 791028,
			"name" : "robocat",
			"uri" : "robocat.bin"
		}
	],
	"materials" :
	[
		{
			"alphaMode" : "OPAQUE",
			"doubleSided" : false,
			"name" : "BlocksPaper",
			"pbrMetallicRoughness" :
			{
				"baseColorFactor" :
				[
					1,
					1,
					1,
					1
				],
				"metallicFactor" : 0,
				"roughnessFactor" : 0.6
			}
		},
		{
			"alphaMode" : "BLEND",
			"doubleSided" : false,
			"name" : "BlocksGlass",
			"pbrMetallicRoughness" :
			{
				"baseColorFactor" :
				[
					0.2,
					0.2,
					1,
					0.3
				],
				"metallicFactor" : 1,
				"roughnessFactor" : 0.4
			}
		},
		{
			"alphaMode" : "OPAQUE",
			"doubleSided" : true,
			"name" : "BlocksGem",
			"pbrMetallicRoughness" :
			{
				"baseColorFactor" :
				[
					1,
					0.4,
					1,
					1
				],
				"metallicFactor" : 0,
				"roughnessFactor" : 0.1
			}
		}
	],
	"meshes" :
	[
		{
			"name" : "mesh_m0-PolyPaper13_-2081036",
			"primitives" :
			[
				{
					"attributes" :
					{
						"COLOR_0" : 0,
						"NORMAL" : 6,
						"POSITION" : 9
					},
					"indices" : 3,
					"material" : 0,
					"mode" : 4
				}
			]
		},
		{
			"name" : "mesh_m1-PolyPaper16_-2079376",
			"primitives" :
			[
				{
					"attributes" :
					{
						"COLOR_0" : 1,
						"NORMAL" : 7,
						"POSITION" : 10
					},
					"indices" : 4,
					"material" : 0,
					"mode" : 4
				}
			]
		},
		{
			"name" : "mesh_m2-PolyGlass24_-2078922",
			"primitives" :
			[
				{
					"attributes" :
					{
						"COLOR_0" : 2,
						"NORMAL" : 8,
						"POSITION" : 11
					},
					"indices" : 5,
					"material" : 1,
					"mode" : 4
				}
			]
		}
	],
	"nodes" :
	[
		{
			"matrix" :
			[
				1,
				0,
				0,
				0,
				0,
				1,
				0,
				0,
				0,
				0,
				1,
				0,
				0,
				0,
				0,
				1
			],
			"mesh" : 2,
			"name" : "node_MeshObject-1115169920-PolyGlass24"
		},
		{
			"matrix" :
			[
				1,
				0,
				0,
				0,
				0,
				1,
				0,
				0,
				0,
				0,
				1,
				0,
				0,
				0,
				0,
				1
			],
			"mesh" : 0,
			"name" : "node_MeshObject1345845824-PolyPaper13"
		},
		{
			"matrix" :
			[
				1,
				0,
				0,
				0,
				0,
				1,
				0,
				0,
				0,
				0,
				1,
				0,
				0,
				0,
				0,
				1
			],
			"mesh" : 1,
			"name" : "node_MeshObject440990272-PolyPaper16"
		}
	],
	"scene" : 0,
	"scenes" :
	[
		{
			"extras" : {},
			"name" : "defaultScene",
			"nodes" :
			[
				1,
				2,
				0
			]
		}
	]
}
